# xmcd CD database file
#
# Track frame offsets:
#	150
#	13235
#	25817
#	36592
#	50366
#	65074
#	79115
#	92911
#	107196
#	121975
#	132576
#	144848
#	165045
#	178978
#	191915
#
# Disc length: 2802 seconds
#
# Revision: 0
# Processed by: cddbd v1.5.1PL0 Copyright (c) Steve Scherf et al.
# Submitted via: CDex 1.51
#
DISCID=d60af00f
DTITLE=Col Edmonds - My Kinda Country
DYEAR=1900
DGENRE=Country
TTITLE0=Born to Lose
TTITLE1=Smoke Along the Track
TTITLE2=Lamplighting Time in the Valley
TTITLE3=Suvla Bay
TTITLE4=City Lights
TTITLE5=The Plains of Pepermanati
TTITLE6=When the Rain Tumbles Down in July
TTITLE7=Book of Memories
TTITLE8=Losing You Again
TTITLE9=Promised to John
TTITLE10=All Over Again
TTITLE11=I'll Leave this World Loving You
TTITLE12=The Wild Side of Life
TTITLE13=Don't Let Me Cross Over
TTITLE14=We've Done Us Proud
EXTD=
EXTT0=
EXTT1=
EXTT2=
EXTT3=
EXTT4=
EXTT5=
EXTT6=
EXTT7=
EXTT8=
EXTT9=
EXTT10=
EXTT11=
EXTT12=
EXTT13=
EXTT14=
PLAYORDER=
